<?xml version="1.0" encoding="utf-8"?>
<!-- Generator: Adobe Illustrator 25.0.0, SVG Export Plug-In . SVG Version: 6.00 Build 0)  -->
<svg version="1.1" id="Layer_1" xmlns="http://www.w3.org/2000/svg" xmlns:xlink="http://www.w3.org/1999/xlink" x="0px" y="0px"
	 viewBox="0 0 70 70" style="enable-background:new 0 0 70 70;" xml:space="preserve">
<style type="text/css">
	.st0{fill:#FFFFFF;stroke:#FFFFFF;stroke-width:2;stroke-miterlimit:10;}
	.st1{fill:none;stroke:#FFFFFF;stroke-width:2;stroke-miterlimit:10;}
	.st2{fill:none;stroke:#FFFFFF;stroke-width:2;stroke-linejoin:round;stroke-miterlimit:10;}
	.st3{fill:none;stroke:#FFFFFF;stroke-width:2;stroke-linecap:round;stroke-miterlimit:10;}
</style>
<g>
	<g>
		<rect x="-9.4426832" y="-6.5875001" class="st0" width="88.8853683" height="84"/>
	</g>
	<g>
		<g>
			<ellipse class="st1" cx="35" cy="23.0814304" rx="24.4502811" ry="23.106432"/>
			<path class="st1" d="M20.3468304,4.5827937l0.8259392,5.5220809c0.2611008,1.7456255-0.5795593,3.474844-2.1514416,4.4247007
				l-0.9253807,0.5592556c-1.2796707,0.7731943-2.3351851,1.8356628-3.0714054,3.0913315l-4.3335781,7.3920002"/>
			<path class="st1" d="M11.9281368,30.7480068l4.466629,0.3254986c0.5874767,0.0427876,1.0850945,0.3823318,1.3011971,0.8711071
				c0.5442848,1.2313862,1.9996433,3.6147556,5.5072823,5.1585178c0.5403957,0.2378273,0.8987141,0.7116394,0.8853817,1.2487144
				L23.957798,43.702774"/>
			<path class="st1" d="M29.9427013,0.4703375l0.191103,2.7250123c0.0519428,0.7424812-0.1020794,1.4849627-0.4470654,2.1538126
				l-1.1356506,2.2022438c-0.5683098,1.1021066,0.1406898,2.4114566,1.418972,2.6205373l0,0
				c0.7466373,0.1220627,1.5004959-0.176137,1.9325619-0.7643995l2.7958603-3.8073006
				c0.4469299-0.6086059,1.0249596-1.125206,1.7071571-1.4899497c1.2482834-0.6675377,3.341671-1.9842377,3.9577599-3.577219"/>
			<path class="st2" d="M47.586586,3.2681937l-1.0139885,4.1782126c-0.4260941,1.7561245-2.1153336,2.9762249-4.0202599,2.9039059
				l-2.0774155-0.0790119c-1.2132874-0.0460691-2.3911552,0.3920431-3.2457047,1.2073689l-1.6789627,1.6020374
				c-0.7788582,0.7430058-1.7643738,1.2626247-2.8425255,1.4986124l-0.8020515,0.1754808
				c-0.7805233,0.1708879-1.2231464,0.9526129-0.9402409,1.6610994l0,0c0.183466,0.4598999,0.6349754,0.7756882,1.1539822,0.8073196
				l8.0114899,0.4875927c1.4961891,0.0910892,2.6464233,1.466589,2.1835251,2.8142643
				c-0.1991615,0.5799923-0.6795578,1.0645676-1.6727142,1.213274c0,0-6.2328072,1.1446304-10.0975151-0.0637875
				c-1.4039726-0.4389-2.942522-0.2218132-4.0519238,0.7021885l-0.7220535,0.601387
				c-1.5467453,1.2883492-2.5430946,3.1284752-2.5021229,5.0766182c0.0119438,0.5694942,0.1065235,1.1639252,0.3279037,1.7541561
				c0.7052498,1.8814697,2.662672,3.0456562,4.7613392,3.2712765c1.6961823,0.1824379,4.3041325,1.0094414,5.3440914,4.2481689
				l1.2121773,2.8498306c0.1777687,0.4179001,0.5238647,0.7520599,0.9623222,0.9287224l0.2267952,0.0913506
				c0.9541283,0.3845634,2.0568619,0.2216835,2.8414154-0.419735l0.3123474-0.2554131
				c1.0570412-0.8642807,1.7471542-2.0611496,1.9424248-3.3691864l0.3445702-2.308033
				c0.1247177-0.8346176,0.3930397-1.6445618,0.7945518-2.3972816l1.1518974-2.1595879
				c0.3126259-0.5861626,0.3266525-1.2748299,0.0380554-1.8718872l-0.3070717-0.6352501
				c-0.356514-0.7377567-0.2463799-1.6020374,0.2854042-2.2385998l0.1261063-0.150938
				c0.687336-0.8226738,1.8999252-1.0611553,2.877388-0.5658188l0,0c0.8769073,0.4442825,1.9570045,0.302269,2.6721153-0.3514862
				l0.8860741-0.8098125c0.3998451-0.3655319,0.5837288-0.8935509,0.4916496-1.4119873l-0.2816582-1.5841885
				c-0.147213-0.8284492,0.4099846-1.6229057,1.2745361-1.8174191l0.9531555-0.2144623
				c0.7737198-0.1740379,1.5711861,0.1854572,1.9147835,0.8634949l0.6466408,1.2762737c0,0,0.9814911-4.1208553,3.8519325-2.5068741
				"/>
		</g>
		<g>
			<g>
				<path class="st3" d="M32.5096817,70.8499985c0.0288887-1.9372482-0.4809532-6.3195572-0.8239956-9.0250092
					c-0.1880474-1.4844398-0.4962292-2.9444656-0.9207954-4.3787651c-0.7481651-2.2553978-2.0557518-4.2790108-3.7991562-5.878685
					c-1.010931-0.9275436-2.302269-1.4869347-3.6672153-1.5886536h-0.0001392l-4.1830273-0.3041039
					c-0.7602482-0.0552559-1.5046635-0.2453079-2.1989422-0.5613556l-4.8284187-2.1977806
					c-0.9595451-0.4366722-2.1001949-0.0048599-2.5346222,0.9598312c-0.2304077,0.5112152-0.1762428,0.9330559,0.0440264,1.3542366
					l-0.1454115-0.0794067l-6.0533848-5.9902496c-0.675251-0.6473274-1.7250568-0.6844711-2.4451809-0.0866241L0.9507801,43.075531
					c-0.7580255,0.6296082-0.8938395,1.7478561-0.3079044,2.5373268l8.5484247,11.51548
					c0.9630175,1.2970123,2.4215708,2.1253319,4.0222025,2.2844048l8.9831161,0.8922386h0.0002766
					c0.964962,0.0973892,1.8590946,0.5500679,2.5119839,1.2714195c0.4834538,0.534317,0.6749744,1.1169357,0.8181629,1.841568
					c0.0930519,0.4713173,0.1516609,0.9490662,0.1949921,1.4277344l0.5681725,6.0042953"/>
				<path class="st3" d="M9.4519844,49.1503067c0,0,3.2943144,4.7995491,9.3369923,4.7814369"/>
			</g>
			<g>
				<path class="st3" d="M37.4904556,70.8499985c-0.029026-1.9372482,0.4809532-6.3195572,0.8238564-9.0250092
					c0.1881866-1.4844398,0.4962311-2.9444656,0.9209366-4.3787651c0.7480278-2.2553978,2.0556145-4.2790108,3.799015-5.878685
					c1.0109329-0.9275436,2.3022728-1.4869347,3.6672173-1.5886536h0.0001373l4.1830292-0.3041039
					c0.7602501-0.0552559,1.5046616-0.2453079,2.1990814-0.5613556l4.8282814-2.1977806
					c0.9596825-0.4366722,2.100193-0.0048599,2.5346184,0.9598312c0.2304077,0.5112152,0.1762466,0.9330559-0.0440254,1.3542366
					l0.1454124-0.0794067l6.0533714-5.9902496c0.6752472-0.6473274,1.7250671-0.6844711,2.4451828-0.0866241l0.0026398,0.0020981
					c0.7580185,0.6296082,0.8938522,1.7478561,0.3078995,2.5373268l-8.5484085,11.51548
					c-0.9630203,1.2970123-2.4214325,2.1253319-4.0222015,2.2844048l-8.9831161,0.8922386h-0.0002785
					c-0.964962,0.0973892-1.8590927,0.5500679-2.5119858,1.2714195c-0.4834518,0.534317-0.6749725,1.1169357-0.818161,1.841568
					c-0.0930519,0.4713173-0.1516609,0.9490662-0.1949921,1.4277344l-0.5681725,6.0042953"/>
				<path class="st3" d="M60.5480156,49.1503067c0,0-3.2943153,4.7995491-9.3369904,4.7814369"/>
			</g>
		</g>
	</g>
</g>
</svg>
