<?xml version="1.0" encoding="utf-8"?>
<!-- Generator: Adobe Illustrator 25.0.0, SVG Export Plug-In . SVG Version: 6.00 Build 0)  -->
<svg version="1.1" id="Layer_1" xmlns="http://www.w3.org/2000/svg" xmlns:xlink="http://www.w3.org/1999/xlink" x="0px" y="0px"
	 viewBox="0 0 393 626" style="enable-background:new 0 0 393 626;" xml:space="preserve">
<style type="text/css">
	.st0{fill:#FFFFFF;}
</style>
<path class="st0" d="M173.92,521.15c0,10.77,8.73,19.5,19.5,19.5s19.5-8.73,19.5-19.5V434.9c-0.57-10.59-2.97-26.57-12-43.24
	c-3.55-6.56-8.06-12.41-10-15c-4.34-5.8-9.97-13.23-19-21c-6.02-5.18-11.45-8.71-15-11c-4.91-3.17-8.78-5.26-12-7
	c-4.92-2.65-11.72-6.32-21-10c-4.57-1.82-10.65-4-18-6c2.33-10.33,4.67-20.67,7-31c0.07-0.24,0.76-2.97-1-5c-1.6-1.85-4.53-2.33-7-1
	l-83,27c-0.37,0.17-5.19,2.52-6,8c-0.76,5.12,2.63,8.63,3,9l65,59c0.24,0.18,2.34,1.73,5,1c3.04-0.83,3.95-3.83,4-4l6-24
	c4.51,1.21,10.39,3.07,17,6c6.71,2.97,11.44,5.83,15,8c13.2,8.04,20.3,14.41,22,16c2.23,2.09,3.6,3.57,4,4
	c5.94,6.44,9.15,12.38,10,14c4.16,7.92,5.58,14.75,6,17c0.82,4.37,1.01,8.16,1,11V521.15z"/>
<path class="st0" d="M174.92,322.65L174.92,322.65c0-49,0-98,0-147c-10.33,0-20.67,0-31,0c-0.27-0.05-2.78-0.55-4-3
	c-0.12-0.25-1.22-2.55,0-5l7-12l37-64c0.37-0.87,1.22-2.55,3-4c1.56-1.27,3.13-1.78,4-2c0.89-0.22,2.75-0.56,5,0
	c1.98,0.49,3.27,1.45,4,2c2.22,1.68,3.41,3.72,4,5l43,75c0.29,0.86,1.02,3.35,0,5.59c-0.39,0.86-0.87,1.3-1,1.41
	c-1.12,0.99-2.52,1.01-3,1h-30v176.89v3.11c0.03,0.09,0.29,0.76,1,1c0.46,0.15,0.85,0.05,1,0l5-4c2.35-2,5.36-4.42,9-7
	c4.73-3.35,8.5-5.55,11-7c8.99-5.21,16.25-8.27,18-9c5.29-2.2,9.62-3.58,14-5c3.22-1.04,6.31-2.03,10-3c1.63-0.43,3.01-0.77,4-1
	l-6-29c-0.04-0.29-0.38-3.23,1-5c0.44-0.56,1-1,1-1c0.4-0.31,1.07-0.75,2-1c1.34-0.36,2.47-0.14,3,0l13,4l69,22
	c0.51,0.18,6.67,2.51,8,8c0.6,2.49,0.03,4.88,0,5c-0.48,1.94-1.42,3.29-2,4l-65,59c-2.04,1.75-4.83,2.14-7,1c-2.29-1.21-2.9-3.6-3-4
	l-5-25c-5.16,1.06-10.91,2.64-17,5c-2.92,1.13-5.11,2.13-7,3c-3.93,1.8-10.11,4.66-17,9c-4.81,3.03-11.16,7.54-18,14l-4,4l-1,1
	c-0.42-1.17-1.08-2.92-2-5c-0.65-1.48-2.63-5.81-8-14c-1.58-2.42-3.77-5.75-7-10c-4.57-6.02-8.44-10.23-11-13
	c-2.81-3.04-6.16-6.66-11-11c-3.45-3.09-8.12-6.96-14-11c-0.52-0.33-1.34-0.96-2-2c-1.06-1.68-1.04-3.37-1-4V322.65"/>
</svg>
