<?xml version="1.0" encoding="utf-8"?>
<!-- Generator: Adobe Illustrator 25.0.0, SVG Export Plug-In . SVG Version: 6.00 Build 0)  -->
<svg version="1.1" id="Layer_1" xmlns="http://www.w3.org/2000/svg" xmlns:xlink="http://www.w3.org/1999/xlink" x="0px" y="0px"
	 viewBox="0 0 74.6 74.4" style="enable-background:new 0 0 74.6 74.4;" xml:space="preserve">
<style type="text/css">
	.st0{fill:none;stroke:#000000;stroke-width:2;stroke-miterlimit:10;}
	.st1{fill:none;stroke:#000000;stroke-width:2;stroke-linejoin:round;stroke-miterlimit:10;}
	.st2{fill:none;stroke:#000000;stroke-width:2;stroke-linecap:round;stroke-miterlimit:10;}
</style>
<g>
	<g>
		<ellipse class="st0" cx="37.4" cy="32.5" rx="20.6" ry="19.4"/>
		<path class="st0" d="M25.1,16.9l0.7,4.6c0.2,1.5-0.5,2.9-1.8,3.7l-0.8,0.5c-1.1,0.6-2,1.5-2.6,2.6L17,34.5"/>
		<path class="st0" d="M18,38.9l3.8,0.3c0.5,0,0.9,0.3,1.1,0.7c0.5,1,1.7,3,4.6,4.3c0.5,0.2,0.8,0.6,0.7,1l-0.1,4.5"/>
		<path class="st0" d="M33.2,13.5l0.2,2.3c0,0.6-0.1,1.2-0.4,1.8l-1,1.8c-0.5,0.9,0.1,2,1.2,2.2l0,0c0.6,0.1,1.3-0.1,1.6-0.6
			l2.4-3.2c0.4-0.5,0.9-0.9,1.4-1.3c1.1-0.6,2.8-1.7,3.3-3"/>
		<path class="st1" d="M48,15.8l-0.9,3.5c-0.4,1.5-1.8,2.5-3.4,2.4l-1.7-0.1c-1,0-2,0.3-2.7,1l-1.4,1.3c-0.7,0.6-1.5,1.1-2.4,1.3
			l-0.7,0.1c-0.7,0.1-1,0.8-0.8,1.4l0,0c0.2,0.4,0.5,0.7,1,0.7l6.7,0.4c1.3,0.1,2.2,1.2,1.8,2.4c-0.2,0.5-0.6,0.9-1.4,1
			c0,0-5.2,1-8.5-0.1c-1.2-0.4-2.5-0.2-3.4,0.6l-0.6,0.5c-1.3,1.1-2.1,2.6-2.1,4.3c0,0.5,0.1,1,0.3,1.5c0.6,1.6,2.2,2.6,4,2.7
			c1.4,0.2,3.6,0.8,4.5,3.6l1,2.4c0.1,0.4,0.4,0.6,0.8,0.8l0.2,0.1c0.8,0.3,1.7,0.2,2.4-0.4l0.3-0.2c0.9-0.7,1.5-1.7,1.6-2.8
			l0.3-1.9c0.1-0.7,0.3-1.4,0.7-2l1-1.8c0.3-0.5,0.3-1.1,0-1.6l-0.3-0.5c-0.3-0.6-0.2-1.3,0.2-1.9l0.1-0.1c0.6-0.7,1.6-0.9,2.4-0.5
			l0,0c0.7,0.4,1.6,0.3,2.3-0.3l0.7-0.7c0.3-0.3,0.5-0.7,0.4-1.2l-0.2-1.3c-0.1-0.7,0.3-1.4,1.1-1.5l0.8-0.2
			c0.7-0.1,1.3,0.2,1.6,0.7l0.5,1.1c0,0,0.8-3.5,3.2-2.1"/>
	</g>
	<g>
		<g>
			<path class="st2" d="M35.3,72.5c0-1.6-0.4-5.3-0.7-7.6c-0.2-1.2-0.4-2.5-0.8-3.7c-0.6-1.9-1.7-3.6-3.2-4.9
				c-0.9-0.8-1.9-1.2-3.1-1.3h0l-3.5-0.3c-0.6,0-1.3-0.2-1.9-0.5l-4.1-1.8c-0.8-0.4-1.8,0-2.1,0.8c-0.2,0.4-0.1,0.8,0,1.1l-0.1-0.1
				l-5.1-5c-0.6-0.5-1.5-0.6-2.1-0.1l0,0c-0.6,0.5-0.8,1.5-0.3,2.1l7.2,9.7c0.8,1.1,2,1.8,3.4,1.9l7.6,0.7h0
				c0.8,0.1,1.6,0.5,2.1,1.1c0.4,0.4,0.6,0.9,0.7,1.5c0.1,0.4,0.1,0.8,0.2,1.2l0.5,5"/>
			<path class="st2" d="M15.9,54.3c0,0,2.8,4,7.9,4"/>
		</g>
		<g>
			<path class="st2" d="M39.5,72.5c0-1.6,0.4-5.3,0.7-7.6c0.2-1.2,0.4-2.5,0.8-3.7c0.6-1.9,1.7-3.6,3.2-4.9c0.9-0.8,1.9-1.2,3.1-1.3
				h0l3.5-0.3c0.6,0,1.3-0.2,1.9-0.5l4.1-1.8c0.8-0.4,1.8,0,2.1,0.8c0.2,0.4,0.1,0.8,0,1.1l0.1-0.1l5.1-5c0.6-0.5,1.5-0.6,2.1-0.1
				l0,0c0.6,0.5,0.8,1.5,0.3,2.1L59.2,61c-0.8,1.1-2,1.8-3.4,1.9l-7.6,0.7h0c-0.8,0.1-1.6,0.5-2.1,1.1c-0.4,0.4-0.6,0.9-0.7,1.5
				c-0.1,0.4-0.1,0.8-0.2,1.2l-0.5,5"/>
			<path class="st2" d="M59,54.3c0,0-2.8,4-7.9,4"/>
		</g>
	</g>
</g>
</svg>
