<?xml version="1.0"?>
<svg xmlns="http://www.w3.org/2000/svg" viewBox="0 0 512 512" width="512" height="512"><g id="outline"><path d="M189.95215,493.53027A8.003,8.003,0,0,0,195.7334,496H232a8.00022,8.00022,0,0,0,7.15527-4.42188L256,457.88867l16.84473,33.68945A8.00022,8.00022,0,0,0,280,496h36.2666a7.99921,7.99921,0,0,0,7.99219-8.35547l-4.22363-95.02832L326.55859,360H328a8.00022,8.00022,0,0,0,7.15527-4.42188l16-32a8.00091,8.00091,0,0,0,.53711-5.77636l-16-56a8.002,8.002,0,0,0-4.541-5.15528l-45.90918-19.67529A31.7932,31.7932,0,0,0,288,224V184a7.99943,7.99943,0,0,0-3.5625-6.65625l-19.3584-12.90527A26.42157,26.42157,0,0,0,224,186.42188V224a31.801,31.801,0,0,0,2.75757,12.97119l-45.90894,19.67529a7.99834,7.99834,0,0,0-4.60937,5.41309l-16,64a8,8,0,0,0,1.10449,6.37793l16,24A7.99943,7.99943,0,0,0,184,360h1.44141l6.52343,32.61621-4.22363,95.02832A8.00411,8.00411,0,0,0,189.95215,493.53027ZM284.94434,480l-21.78907-43.57812a8.00009,8.00009,0,0,0-14.31054,0L227.05566,480h-22.959l3.55566-80h96.69532l3.55566,80ZM240,224V208h32v16a16,16,0,0,1-32,0Zm10.42188-48a10.38378,10.38378,0,0,1,5.78124,1.75L272,188.28125V192H240v-5.57812A10.43312,10.43312,0,0,1,250.42188,176ZM176.61914,326.50684,190.79883,269.79l46.42944-19.89795a31.90035,31.90035,0,0,0,37.5437,0l46.58057,19.9624,14.10058,49.35156L323.05566,344h-33.167l-17.981-8.99048,30.60694-20.40478,14.95508,4.9851,5.06054-15.17968L312,300.90015V280a8.00039,8.00039,0,0,0-8-8H288a7.99723,7.99723,0,0,0-2.9707.57227l-26.3711,10.54785-32.12793-10.71A8.0151,8.0151,0,0,0,224,272H208a8.00039,8.00039,0,0,0-8,8v32a7.999,7.999,0,0,0,10.9707,7.42773l49.83252-19.93261,8.8833,17.76611L229.57812,344H188.28125ZM296,299.71875l-12.89746,8.59814-7.39209-14.78466L289.541,288H296Zm-60.33984-7.39941L216,300.18359V288h6.70215ZM232,360a8.00221,8.00221,0,0,0,4.4375-1.34375l20.13721-13.4248,27.84717,13.92382A7.99934,7.99934,0,0,0,288,360h22.24121l-4.7998,24H206.55859l-4.8-24Z"/><path d="M232,152V104a8.00039,8.00039,0,0,0-8-8H201.96289L256,35.959,310.03711,96H288a8.00039,8.00039,0,0,0-8,8v48h16V112h32a8.00006,8.00006,0,0,0,5.94629-13.35156l-72-80a7.99954,7.99954,0,0,0-11.89258,0l-72,80A8.00006,8.00006,0,0,0,184,112h32v40Z"/><path d="M98.64844,269.94629A8.00006,8.00006,0,0,0,112,264V232h24a8.00917,8.00917,0,0,1,8,8v24h16V240a24.0275,24.0275,0,0,0-24-24H104a8.00039,8.00039,0,0,0-8,8v22.03711L35.959,192,96,137.96289V160a8.00039,8.00039,0,0,0,8,8h40a48.05375,48.05375,0,0,1,48,48v16h16V216a64.07207,64.07207,0,0,0-64-64H112V120a8.00006,8.00006,0,0,0-13.35156-5.94629l-80,72a7.99954,7.99954,0,0,0,0,11.89258Z"/><path d="M493.35156,186.05664l-80-72A8.00006,8.00006,0,0,0,400,120.00293v32H368a64.07207,64.07207,0,0,0-64,64v16h16v-16a48.05375,48.05375,0,0,1,48-48h40a8.00039,8.00039,0,0,0,8-8V137.96582l60.041,54.03711L416,246.04V224.00293a8.00039,8.00039,0,0,0-8-8H376a24.0275,24.0275,0,0,0-24,24v24h16v-24a8.00917,8.00917,0,0,1,8-8h24v32a7.99984,7.99984,0,0,0,13.35156,5.94629l80-72a7.99954,7.99954,0,0,0,0-11.89258Z"/></g></svg>
