<?xml version="1.0" encoding="utf-8"?>
<!-- Generator: Adobe Illustrator 25.0.0, SVG Export Plug-In . SVG Version: 6.00 Build 0)  -->
<svg version="1.1" id="Layer_1" xmlns="http://www.w3.org/2000/svg" xmlns:xlink="http://www.w3.org/1999/xlink" x="0px" y="0px"
	 viewBox="0 0 842 842" style="enable-background:new 0 0 842 842;" xml:space="preserve">
<style type="text/css">
	.st0{fill:none;stroke:#F5E051;stroke-width:24;stroke-miterlimit:10;}
</style>
<path class="st0" d="M752.8398438,345.6033936V344.3125C752.8398438,161.0677185,604.055481,12,421.1875,12
	S89.5351563,161.0677185,89.5351563,344.3125v1.2908936C46.3768387,351.8739014,13,388.8295898,13,433.78125V574.375
	c0,49.3279419,40.0609093,89.46875,89.2910156,89.46875h76.5351563c21.1006012,0,38.2675781-17.2009888,38.2675781-38.34375
	V382.65625c0-21.1427307-17.1669769-38.34375-38.2675781-38.34375h-12.7558594
	c0-140.9567413,114.453064-255.625,255.1171875-255.625c140.6638184,0,255.1171875,114.6682587,255.1171875,255.625h-12.7558594
	c-21.1008911,0-38.2675781,17.2010193-38.2675781,38.34375V625.5c0,21.1427612,17.166687,38.34375,38.2675781,38.34375h38.2675781
	v51.125c0,21.1427612-17.1669922,38.34375-38.2675781,38.34375H548.7460938c0-28.1954346-22.8969116-51.125-51.0234375-51.125
	h-51.0234375c-28.1268311,0-51.0234375,22.9295654-51.0234375,51.125v25.5625c0,28.1954346,22.8966064,51.125,51.0234375,51.125
	h51.0234375c28.1265259,0,51.0234375-22.9295654,51.0234375-51.125h114.8027344
	c35.1779785,0,63.7792969-28.6708984,63.7792969-63.90625v-51.125h12.7558594
	c49.2297974,0,89.2910156-40.1408081,89.2910156-89.46875V433.78125
	C829.375,388.8295898,795.9978638,351.8739014,752.8398438,345.6033936z"/>
</svg>
