<?xml version="1.0" encoding="utf-8"?>
<!-- Generator: Adobe Illustrator 25.0.0, SVG Export Plug-In . SVG Version: 6.00 Build 0)  -->
<svg version="1.1" id="Layer_1" xmlns="http://www.w3.org/2000/svg" xmlns:xlink="http://www.w3.org/1999/xlink" x="0px" y="0px"
	 viewBox="0 0 70 70" style="enable-background:new 0 0 70 70;" xml:space="preserve">
<style type="text/css">
	.st0{fill:#FFFFFF;stroke:#FFFFFF;stroke-width:2;stroke-miterlimit:10;}
	.st1{fill:none;stroke:#FFFFFF;stroke-width:2;stroke-miterlimit:10;}
	.st2{fill:none;stroke:#FFFFFF;stroke-width:2;stroke-linejoin:round;stroke-miterlimit:10;}
	.st3{fill:none;stroke:#FFFFFF;stroke-width:2;stroke-linecap:round;stroke-miterlimit:10;}
</style>
<g>
	<g>
		<rect x="-9" y="-7.8249998" class="st0" width="88" height="85.3000031"/>
	</g>
	<g>
		<g>
			<ellipse class="st1" cx="35" cy="22.303093" rx="24.2067375" ry="23.4640312"/>
			<path class="st1" d="M20.4927883,3.5181673l0.8177109,5.607542c0.2585011,1.7726402-0.5737858,3.5286207-2.1300125,4.4931774
				l-0.9161625,0.5679111c-1.2669239,0.7851601-2.311924,1.8640709-3.0408115,3.1391735l-4.2904129,7.5063992"/>
			<path class="st1" d="M12.1579504,30.0883179l4.4221373,0.3305378c0.581625,0.0434494,1.0742874,0.3882484,1.2882366,0.8845863
				c0.5388641,1.2504444,1.9797249,3.6706982,5.452425,5.2383556c0.5350132,0.2415047,0.8897629,0.7226486,0.876564,1.2680359
				l-0.1295261,5.4337425"/>
			<path class="st1" d="M29.9930744-0.6579341l0.1892014,2.7671852c0.051424,0.7539721-0.1010628,1.5079441-0.4426136,2.1871455
				l-1.1243362,2.2363257c-0.5626507,1.119163,0.139286,2.4487762,1.4048367,2.6610937l0,0
				c0.7392006,0.1239519,1.4855499-0.1788635,1.9133129-0.7762299l2.768013-3.8662229
				c0.4424744-0.6180251,1.0147476-1.1426201,1.6901474-1.5130086c1.2358513-0.6778684,3.3083878-2.014946,3.9183388-3.6325805"/>
			<path class="st2" d="M47.4612122,2.1832223L46.457325,6.4260979c-0.4218483,1.7833033-2.0942612,3.0222855-3.9802132,2.9488478
				l-2.0567245-0.0802355c-1.2011986-0.0467815-2.3673363,0.3981113-3.2133751,1.2260542l-1.6622391,1.6268311
				c-0.7710991,0.7545052-1.7467995,1.2821655-2.814209,1.5218048l-0.7940636,0.1781969
				c-0.7727509,0.1735325-1.2109623,0.9673557-0.9308758,1.6868076l0,0c0.1816368,0.4670181,0.6286507,0.787693,1.1424885,0.8198128
				l7.9316864,0.4951401c1.4812889,0.0924969,2.6200638,1.4892845,2.1617737,2.8578167
				c-0.1971741,0.5889702-0.6727867,1.0810452-1.6560478,1.2320518c0,0-6.1707268,1.1623459-9.9969387-0.0647755
				c-1.389986-0.4456921-2.9132118-0.2252445-4.0115623,0.7130547l-0.7148628,0.6106949
				c-1.5313358,1.3082886-2.5177612,3.1768932-2.4771996,5.1551857c0.0118256,0.5783081,0.105463,1.1819382,0.3246384,1.7813053
				c0.698225,1.9105854,2.6361504,3.0927906,4.713913,3.3219013c1.679287,0.1852608,4.2612629,1.0250664,5.2908611,4.3139153
				l1.2000999,2.8939362c0.1759987,0.424366,0.5186501,0.7636986,0.9527397,0.9430962l0.2245369,0.0927658
				c0.944622,0.3905106,2.0363731,0.2251091,2.8131104-0.4262352l0.3092384-0.2593651
				c1.0465126-0.8776588,1.7297516-2.0930481,1.9230766-3.4213295l0.3411369-2.34375
				c0.1234741-0.847538,0.3891258-1.6700172,0.7866364-2.4343834l1.1404266-2.1930103
				c0.3095093-0.5952339,0.3233986-1.2945595,0.037674-1.900856l-0.3040123-0.6450825
				c-0.3529625-0.7491722-0.243927-1.6268311,0.2825623-2.2732449l0.1248512-0.1532726
				c0.6804848-0.8354073,1.8809967-1.0775795,2.8487244-0.5745754l0,0c0.8681755,0.4511566,1.9375114,0.3069458,2.6455002-0.3569279
				l0.8772507-0.8223457c0.3958626-0.3711872,0.5779114-0.9073772,0.4867477-1.4338379L50.125824,19.853384
				c-0.1457481-0.8412704,0.4059029-1.6480236,1.261837-1.8455448l0.9436646-0.217783
				c0.7660103-0.1767311,1.5555382,0.1883278,1.8957138,0.8768578l0.6401978,1.2960262c0,0,0.971714-4.1846304,3.8135643-2.5456715"
				/>
		</g>
		<g>
			<g>
				<path class="st3" d="M32.5344887,70.810936c0.0285988-1.9672318-0.476162-6.4173584-0.8157883-9.1646843
					c-0.1861763-1.507412-0.4912872-2.9900322-0.9116249-4.4465294c-0.7407131-2.2903023-2.0352764-4.3452339-3.7613125-5.9696655
					c-1.0008621-0.9418983-2.2793388-1.5099449-3.6306877-1.6132355H23.414938l-4.1413631-0.308815
					c-0.7526741-0.0561104-1.4896755-0.2491035-2.1770382-0.5700417l-4.780324-2.2317963
					c-0.9499874-0.443428-2.0792751-0.0049324-2.5093756,0.9746857c-0.2281122,0.5191307-0.1744871,0.9474983,0.0435877,1.3751945
					l-0.1439619-0.0806351l-5.9930892-6.0829544c-0.668525-0.6573448-1.7078736-0.6950607-2.420825-0.0879669l-0.0026125,0.0021324
					C0.5394613,43.2459755,0.405,44.3815308,0.9850988,45.1832199L9.4483747,56.876915
					c0.9534254,1.3170853,2.3974504,2.158226,3.9821377,2.3197594l8.8936377,0.9060478h0.0002747
					c0.9553509,0.098896,1.8405762,0.5585823,2.4869633,1.2910957c0.4786377,0.5425873,0.6682491,1.1342239,0.8100128,1.8700676
					c0.0921249,0.4786148,0.1501484,0.9637604,0.1930485,1.4498367l0.5625134,6.0972137"/>
				<path class="st3" d="M9.7064629,48.7754135c0,0,3.2614994,4.8738289,9.243988,4.8554382"/>
			</g>
			<g>
				<path class="st3" d="M37.4656487,70.810936c-0.0287361-1.9672318,0.476162-6.4173584,0.8156509-9.1646843
					c0.1863136-1.507412,0.4912872-2.9900322,0.9117622-4.4465294c0.7405739-2.2903023,2.0351372-4.3452339,3.7611771-5.9696655
					c1.0008621-0.9418983,2.279335-1.5099449,3.6306877-1.6132355h0.0001373l4.1413612-0.308815
					c0.7526741-0.0561104,1.4896736-0.2491035,2.1771736-0.5700417l4.7801895-2.2317963
					c0.9501228-0.443428,2.0792732-0.0049324,2.5093727,0.9746857c0.2281151,0.5191307,0.1744881,0.9474983-0.0435867,1.3751945
					l0.1439629-0.0806351l5.9930763-6.0829544c0.6685257-0.6573448,1.7078857-0.6950607,2.4208221-0.0879669l0.0026169,0.0021324
					c0.750473,0.6393509,0.8849487,1.7749062,0.3048325,2.5765953L60.5516243,56.876915
					c-0.9534225,1.3170853-2.3973122,2.158226-3.9821358,2.3197594l-8.8936386,0.9060478h-0.0002747
					c-0.955349,0.098896-1.8405762,0.5585823-2.4869614,1.2910957c-0.4786377,0.5425873-0.668251,1.1342239-0.8100128,1.8700676
					c-0.0921249,0.4786148-0.1501503,0.9637604-0.1930504,1.4498367l-0.5625114,6.0972137"/>
				<path class="st3" d="M60.2935371,48.7754135c0,0-3.2615013,4.8738289-9.243988,4.8554382"/>
			</g>
		</g>
	</g>
</g>
</svg>
