<?xml version="1.0" encoding="utf-8"?>
<!-- Generator: Adobe Illustrator 25.0.0, SVG Export Plug-In . SVG Version: 6.00 Build 0)  -->
<svg version="1.1" id="Layer_1" xmlns="http://www.w3.org/2000/svg" xmlns:xlink="http://www.w3.org/1999/xlink" x="0px" y="0px"
	 viewBox="0 0 70 70" style="enable-background:new 0 0 70 70;" xml:space="preserve">
<style type="text/css">
	.st0{fill:#FFFFFF;stroke:#000000;stroke-width:2;stroke-miterlimit:10;}
	.st1{fill:none;stroke:#000000;stroke-width:2;stroke-miterlimit:10;}
	.st2{fill:none;stroke:#000000;stroke-width:2;stroke-linejoin:round;stroke-miterlimit:10;}
	.st3{fill:none;stroke:#000000;stroke-width:2;stroke-linecap:round;stroke-miterlimit:10;}
</style>
<g>
	<g>
		<rect x="-9.4" y="-6.5" class="st0" width="88.9" height="83.7"/>
	</g>
	<g>
		<g>
			<ellipse class="st1" cx="35" cy="22.4" rx="23.7" ry="22.4"/>
			<path class="st1" d="M20.8,4.5l0.8,5.3c0.3,1.7-0.6,3.4-2.1,4.3l-0.9,0.5c-1.2,0.7-2.3,1.8-3,3l-4.2,7.2"/>
			<path class="st1" d="M12.6,29.8l4.3,0.3c0.6,0,1.1,0.4,1.3,0.8c0.5,1.2,1.9,3.5,5.3,5c0.5,0.2,0.9,0.7,0.9,1.2l-0.1,5.2"/>
			<path class="st1" d="M30.1,0.5l0.2,2.6c0.1,0.7-0.1,1.4-0.4,2.1l-1.1,2.1c-0.6,1.1,0.1,2.3,1.4,2.5l0,0c0.7,0.1,1.5-0.2,1.9-0.7
				l2.7-3.7c0.4-0.6,1-1.1,1.7-1.4c1.2-0.6,3.2-1.9,3.8-3.5"/>
			<path class="st2" d="M47.2,3.2l-1,4c-0.4,1.7-2.1,2.9-3.9,2.8l-2-0.1c-1.2,0-2.3,0.4-3.1,1.2l-1.6,1.6c-0.8,0.7-1.7,1.2-2.8,1.5
				L32,14.3c-0.8,0.2-1.2,0.9-0.9,1.6l0,0c0.2,0.4,0.6,0.8,1.1,0.8l7.8,0.5c1.5,0.1,2.6,1.4,2.1,2.7c-0.2,0.6-0.7,1-1.6,1.2
				c0,0-6,1.1-9.8-0.1c-1.4-0.4-2.9-0.2-3.9,0.7L26,22.3c-1.5,1.2-2.5,3-2.4,4.9c0,0.6,0.1,1.1,0.3,1.7c0.7,1.8,2.6,2.9,4.6,3.2
				c1.6,0.2,4.2,1,5.2,4.1l1.2,2.8c0.2,0.4,0.5,0.7,0.9,0.9l0.2,0.1c0.9,0.4,2,0.2,2.8-0.4l0.3-0.2c1-0.8,1.7-2,1.9-3.3l0.3-2.2
				c0.1-0.8,0.4-1.6,0.8-2.3l1.1-2.1c0.3-0.6,0.3-1.2,0-1.8L43,26.9c-0.3-0.7-0.2-1.6,0.3-2.2l0.1-0.1c0.7-0.8,1.8-1,2.8-0.5l0,0
				c0.9,0.4,1.9,0.3,2.6-0.3l0.9-0.8c0.4-0.4,0.6-0.9,0.5-1.4L49.8,20c-0.1-0.8,0.4-1.6,1.2-1.8l0.9-0.2c0.8-0.2,1.5,0.2,1.9,0.8
				l0.6,1.2c0,0,1-4,3.7-2.4"/>
		</g>
		<g>
			<g>
				<path class="st3" d="M32.6,68.6c0-1.9-0.5-6.1-0.8-8.7c-0.2-1.4-0.5-2.8-0.9-4.2c-0.7-2.2-2-4.1-3.7-5.7c-1-0.9-2.2-1.4-3.6-1.5
					h0l-4.1-0.3c-0.7-0.1-1.5-0.2-2.1-0.5l-4.7-2.1c-0.9-0.4-2,0-2.5,0.9c-0.2,0.5-0.2,0.9,0,1.3l-0.1-0.1l-5.9-5.8
					c-0.7-0.6-1.7-0.7-2.4-0.1l0,0c-0.7,0.6-0.9,1.7-0.3,2.5L10,55.3c0.9,1.3,2.3,2.1,3.9,2.2l8.7,0.9h0c0.9,0.1,1.8,0.5,2.4,1.2
					c0.5,0.5,0.7,1.1,0.8,1.8c0.1,0.5,0.1,0.9,0.2,1.4l0.6,5.8"/>
				<path class="st3" d="M10.2,47.6c0,0,3.2,4.6,9.1,4.6"/>
			</g>
			<g>
				<path class="st3" d="M37.4,68.6c0-1.9,0.5-6.1,0.8-8.7c0.2-1.4,0.5-2.8,0.9-4.2c0.7-2.2,2-4.1,3.7-5.7c1-0.9,2.2-1.4,3.6-1.5h0
					l4.1-0.3c0.7-0.1,1.5-0.2,2.1-0.5l4.7-2.1c0.9-0.4,2,0,2.5,0.9c0.2,0.5,0.2,0.9,0,1.3l0.1-0.1l5.9-5.8c0.7-0.6,1.7-0.7,2.4-0.1
					l0,0c0.7,0.6,0.9,1.7,0.3,2.5L60,55.3c-0.9,1.3-2.3,2.1-3.9,2.2l-8.7,0.9h0c-0.9,0.1-1.8,0.5-2.4,1.2c-0.5,0.5-0.7,1.1-0.8,1.8
					c-0.1,0.5-0.1,0.9-0.2,1.4l-0.6,5.8"/>
				<path class="st3" d="M59.8,47.6c0,0-3.2,4.6-9.1,4.6"/>
			</g>
		</g>
	</g>
</g>
</svg>
