<?xml version="1.0" encoding="iso-8859-1"?>
<!-- Generator: Adobe Illustrator 18.1.1, SVG Export Plug-In . SVG Version: 6.00 Build 0)  -->
<svg version="1.1" id="Capa_1" xmlns="http://www.w3.org/2000/svg" xmlns:xlink="http://www.w3.org/1999/xlink" x="0px" y="0px"
	 viewBox="0 0 290 290" style="enable-background:new 0 0 290 290;" xml:space="preserve">
<g>
	<path id="path32545" d="M145,2.5c-19.271,0-35,15.729-35,35c0,17.573,13.082,32.196,30,34.637v20.602
		c-15.624,1.417-29.381,9.398-38.49,21.158L66.891,91.869C68.881,87.479,70,82.617,70,77.5c0-19.271-15.729-35-35-35
		S0,58.229,0,77.5c0,19.271,15.729,35,35,35c10.576,0,20.078-4.744,26.506-12.205l34.623,22.031C92.222,129.876,90,138.432,90,147.5
		c0,11.924,3.83,22.968,10.309,31.99l-42.391,36.611C51.768,210.753,43.753,207.5,35,207.5c-19.271,0-35,15.729-35,35
		s15.729,35,35,35s35-15.729,35-35c0-6.927-2.04-13.392-5.539-18.838l42.389-36.607c9.899,9.551,23.348,15.445,38.15,15.445
		c13.821,0,26.46-5.141,36.135-13.596l45.381,43.318C222.421,237.952,220,244.951,220,252.5c0,19.271,15.729,35,35,35
		s35-15.729,35-35s-15.729-35-35-35c-8.13,0-15.624,2.808-21.578,7.492l-45.381-43.318C195.517,172.28,200,160.405,200,147.5
		c0-1.771-0.093-3.521-0.258-5.25l22.072-3.67C226.471,152.45,239.6,162.5,255,162.5c19.271,0,35-15.729,35-35s-15.729-35-35-35
		s-35,15.729-35,35c0,0.415,0.017,0.826,0.031,1.238l-22.15,3.686c-6.134-21.466-25.007-37.611-47.881-39.686V72.137
		c16.918-2.441,30-17.064,30-34.637C180,18.229,164.271,2.5,145,2.5z M145,12.5c13.866,0,25,11.134,25,25s-11.134,25-25,25
		s-25-11.134-25-25S131.134,12.5,145,12.5z M145,20c-9.635,0-17.5,7.865-17.5,17.5c-0.02,1.381,1.084,2.516,2.465,2.535
		c1.381,0.02,2.516-1.084,2.535-2.465c0-0.024,0-0.047,0-0.071c0-6.933,5.567-12.5,12.5-12.5c1.381,0.02,2.516-1.084,2.535-2.465
		s-1.084-2.516-2.465-2.535C145.047,20,145.024,20,145,20z M35,52.5c13.866,0,25,11.134,25,25s-11.134,25-25,25s-25-11.134-25-25
		C10,63.634,21.134,52.5,35,52.5z M35,60c-9.635,0-17.5,7.865-17.5,17.5c-0.02,1.381,1.084,2.516,2.465,2.535
		c1.381,0.02,2.516-1.084,2.535-2.465c0-0.024,0-0.047,0-0.071C22.5,70.567,28.067,65,35,65c1.381,0.02,2.516-1.084,2.535-2.465
		c0.02-1.381-1.084-2.516-2.465-2.535C35.047,60,35.024,60,35,60z M145,102.5c24.912,0,45,20.088,45,45s-20.088,45-45,45
		s-45-20.088-45-45S120.088,102.5,145,102.5z M255,102.5c13.866,0,25,11.134,25,25s-11.134,25-25,25s-25-11.134-25-25
		S241.134,102.5,255,102.5z M255,110c-9.635,0-17.5,7.865-17.5,17.5c-0.02,1.381,1.084,2.516,2.465,2.535
		c1.381,0.02,2.516-1.084,2.535-2.465c0-0.024,0-0.047,0-0.071c0-6.933,5.567-12.5,12.5-12.5c1.381,0.02,2.516-1.084,2.535-2.465
		c0.02-1.381-1.084-2.516-2.465-2.535C255.047,110,255.024,110,255,110z M106.838,149.703c-1.379,0.062-2.448,1.23-2.386,2.61
		c0.007,0.166,0.031,0.331,0.072,0.492c4.434,18.963,20.092,33.259,39.379,35.955c1.363,0.219,2.646-0.709,2.865-2.072
		s-0.709-2.646-2.072-2.865c-0.033-0.005-0.066-0.01-0.1-0.014c-17.257-2.412-31.236-15.176-35.203-32.143
		C109.132,150.477,108.054,149.648,106.838,149.703z M35,217.5c13.866,0,25,11.134,25,25s-11.134,25-25,25s-25-11.134-25-25
		S21.134,217.5,35,217.5z M35,225c-9.635,0-17.5,7.865-17.5,17.5c-0.02,1.381,1.084,2.516,2.465,2.535s2.516-1.084,2.535-2.465
		c0-0.024,0-0.047,0-0.071c0-6.933,5.567-12.5,12.5-12.5c1.381,0.02,2.516-1.084,2.535-2.465c0.02-1.381-1.084-2.516-2.465-2.535
		C35.047,225,35.024,225,35,225z M255,227.5c13.866,0,25,11.134,25,25s-11.134,25-25,25s-25-11.134-25-25S241.134,227.5,255,227.5z
		 M255,235c-9.635,0-17.5,7.865-17.5,17.5c-0.02,1.381,1.084,2.516,2.465,2.535c1.381,0.02,2.516-1.084,2.535-2.465
		c0-0.024,0-0.047,0-0.071c0-6.933,5.567-12.5,12.5-12.5c1.381,0.02,2.516-1.084,2.535-2.465c0.02-1.381-1.084-2.516-2.465-2.535
		C255.047,235,255.024,235,255,235z"/>
</g>
<g>
</g>
<g>
</g>
<g>
</g>
<g>
</g>
<g>
</g>
<g>
</g>
<g>
</g>
<g>
</g>
<g>
</g>
<g>
</g>
<g>
</g>
<g>
</g>
<g>
</g>
<g>
</g>
<g>
</g>
</svg>
