<?xml version="1.0" encoding="utf-8"?>
<!-- Generator: Adobe Illustrator 25.0.0, SVG Export Plug-In . SVG Version: 6.00 Build 0)  -->
<svg version="1.1" id="Layer_1" xmlns="http://www.w3.org/2000/svg" xmlns:xlink="http://www.w3.org/1999/xlink" x="0px" y="0px"
	 viewBox="0 0 360 455" style="enable-background:new 0 0 360 455;" xml:space="preserve">
<style type="text/css">
	.st0{fill:none;stroke:#FFFFFF;stroke-width:13;stroke-miterlimit:10;}
</style>
<path class="st0" d="M158.96,424.07c0,10.31,8.33,18.66,18.6,18.66c10.27,0,18.6-8.36,18.6-18.66v-82.55
	c-0.55-10.14-2.83-25.43-11.45-41.39c-3.39-6.27-7.69-11.87-9.54-14.36c-4.14-5.55-9.51-12.66-18.13-20.1
	c-5.74-4.96-10.93-8.34-14.31-10.53c-4.68-3.03-8.37-5.04-11.45-6.7c-4.69-2.54-11.18-6.04-20.03-9.57
	c-4.36-1.74-10.16-3.82-17.17-5.74c2.23-9.89,4.45-19.78,6.68-29.67c0.06-0.23,0.72-2.84-0.95-4.79c-1.52-1.77-4.32-2.23-6.68-0.96
	l-79.18,25.84c-0.35,0.17-4.95,2.42-5.72,7.66c-0.72,4.9,2.51,8.26,2.86,8.61l62.01,56.46c0.23,0.18,2.23,1.65,4.77,0.96
	c2.9-0.79,3.77-3.67,3.82-3.83l5.72-22.97c4.3,1.15,9.91,2.94,16.22,5.74c6.4,2.84,10.91,5.58,14.31,7.66
	c12.59,7.69,19.36,13.79,20.99,15.31c2.12,2,3.44,3.42,3.82,3.83c5.66,6.17,8.73,11.85,9.54,13.4c3.97,7.58,5.32,14.11,5.72,16.27
	c0.78,4.18,0.96,7.8,0.95,10.53V424.07z"/>
<path class="st0" d="M159.91,234.1L159.91,234.1c0-46.89,0-93.79,0-140.68c-9.86,0-19.72,0-29.57,0c-0.26-0.05-2.65-0.53-3.82-2.87
	c-0.12-0.24-1.17-2.44,0-4.79l6.68-11.48l35.3-61.25c0.35-0.83,1.16-2.44,2.86-3.83c1.49-1.21,2.98-1.7,3.82-1.91
	c0.84-0.21,2.62-0.54,4.77,0c1.89,0.47,3.12,1.39,3.82,1.91c2.12,1.6,3.25,3.56,3.82,4.79l41.02,71.78c0.28,0.82,0.97,3.21,0,5.34
	c-0.37,0.82-0.83,1.24-0.95,1.35c-1.07,0.95-2.41,0.97-2.86,0.96h-28.62v169.29v2.97c0.03,0.09,0.28,0.73,0.95,0.96
	c0.43,0.15,0.81,0.05,0.95,0l4.77-3.83c2.24-1.91,5.12-4.23,8.59-6.7c4.51-3.21,8.11-5.31,10.49-6.7c8.57-4.98,15.5-7.91,17.17-8.61
	c5.04-2.11,9.17-3.43,13.36-4.79c3.08-1,6.02-1.94,9.54-2.87c1.56-0.41,2.87-0.73,3.82-0.96l-5.72-27.75
	c-0.04-0.28-0.36-3.09,0.95-4.79c0.42-0.54,0.95-0.96,0.95-0.96c0.38-0.3,1.02-0.71,1.91-0.96c1.28-0.35,2.35-0.14,2.86,0l12.4,3.83
	l65.82,21.05c0.48,0.18,6.36,2.4,7.63,7.66c0.57,2.38,0.03,4.67,0,4.79c-0.46,1.85-1.36,3.15-1.91,3.83l-62.01,56.46
	c-1.95,1.68-4.61,2.05-6.68,0.96c-2.18-1.15-2.77-3.44-2.86-3.83l-4.77-23.93c-4.92,1.02-10.4,2.53-16.22,4.79
	c-2.79,1.08-4.87,2.04-6.68,2.87c-3.74,1.72-9.65,4.46-16.22,8.61c-4.59,2.9-10.65,7.22-17.17,13.4l-3.82,3.83l-0.95,0.96
	c-0.4-1.12-1.03-2.8-1.91-4.79c-0.62-1.42-2.51-5.56-7.63-13.4c-1.51-2.31-3.6-5.5-6.68-9.57c-4.36-5.76-8.05-9.79-10.49-12.44
	c-2.68-2.91-5.87-6.37-10.49-10.53c-3.29-2.96-7.74-6.66-13.36-10.53c-0.49-0.32-1.28-0.91-1.91-1.91
	c-1.02-1.61-0.99-3.22-0.95-3.83V234.1"/>
</svg>
