<?xml version="1.0" encoding="utf-8"?>
<!-- Generator: Adobe Illustrator 25.0.0, SVG Export Plug-In . SVG Version: 6.00 Build 0)  -->
<svg version="1.1" id="Layer_1" xmlns="http://www.w3.org/2000/svg" xmlns:xlink="http://www.w3.org/1999/xlink" x="0px" y="0px"
	 viewBox="0 0 1618 595" style="enable-background:new 0 0 1618 595;" xml:space="preserve">
<style type="text/css">
	.st0{fill:#F5E051;}
	.st1{font-family:'ITCAvantGardePro-Bold';}
	.st2{font-size:368.8896px;}
	.st3{fill:#B06ADF;}
</style>
<path class="st0" d="M244.5,455.2c0.6-0.9,1.4-2.4,1.5-4.3c0.1-1.1-0.2-2.1-0.3-2.8c-0.2-0.9-0.4-1.8-1-2.8c-0.8-1.4-1.8-2.1-2-2.3
	c-0.6-0.4-1.1-0.6-1.6-0.9c-0.7-0.3-1.6-0.7-2.8-0.9c-1.7-0.2-3.1,0.1-3.5,0.3c-0.6,0.2-1.1,0.4-1.5,0.6l-77.4,48.5
	c-0.6,0.4-1.3,0.8-2.1,1.1c-2.4,0.8-4.5,0.5-5.2,0.3c-0.7-0.1-3-0.7-5.1-2.5c-0.8-0.7-1.2-1.4-1.3-1.5
	c-1.6-2.3-38.8-49.5-92.7-117.8c-0.2-0.3-0.4-0.5-0.7-0.8c-2.4-2.3-6.1-2-6.7-2c-1,0.1-4.1,0.4-6.5,3c-0.2,0.3-2.8,3.1-2.5,6.8
	c0.2,1.9,1,3.3,1.2,3.6c2.2,3.7,40.3,73.6,92.9,170.4c0.1,0.2,0.3,0.6,0.6,1c3.1,4.7,9.2,6.8,14.3,6.7c3.8,0,6.6-1.2,7.2-1.5
	c2.9-1.3,4.8-3.2,6.3-4.8c1.2-1.2,2.1-2.4,2.8-3.3L244.5,455.2z"/>
<text transform="matrix(1 0 0 1 19.8224 381.9611)" class="st1 st2">oonnect</text>
<circle class="st3" cx="141.9" cy="82.1" r="47"/>
<rect x="114.4" y="148.4" width="55.9" height="68.8"/>
</svg>
