<?xml version="1.0" encoding="utf-8"?>
<!-- Generator: Adobe Illustrator 25.0.0, SVG Export Plug-In . SVG Version: 6.00 Build 0)  -->
<svg version="1.1" id="Layer_1" xmlns="http://www.w3.org/2000/svg" xmlns:xlink="http://www.w3.org/1999/xlink" x="0px" y="0px"
	 viewBox="0 0 1618 595" style="enable-background:new 0 0 1618 595;" xml:space="preserve">
<style type="text/css">
	.st0{fill:#F5E051;}
	.st1{fill:#FFFFFF;}
	.st2{font-family:'ArialRoundedMTBold';}
	.st3{font-size:392.0762px;}
	.st4{fill:#B06ADF;}
</style>
<path class="st0" d="M223.7,457.2c0.6-0.8,1.2-2.2,1.3-3.8c0-1-0.1-1.9-0.3-2.5c-0.2-0.8-0.4-1.6-0.9-2.6c-0.7-1.2-1.6-1.9-1.8-2
	c-0.5-0.4-0.9-0.6-1.4-0.8c-0.6-0.3-1.4-0.6-2.5-0.8c-1.5-0.2-2.7,0.1-3.2,0.3c-0.6,0.2-1,0.4-1.3,0.6L144.2,489
	c-0.5,0.3-1.1,0.7-1.9,1c-2.1,0.8-4,0.4-4.7,0.3c-0.6-0.1-2.7-0.6-4.5-2.3c-0.7-0.6-1.1-1.2-1.2-1.4c-1.5-2-34.8-44.4-83.2-105.7
	c-0.2-0.3-0.4-0.5-0.6-0.7c-2.1-2.1-5.4-1.8-6-1.8c-0.9,0.1-3.7,0.3-5.9,2.7c-0.2,0.2-2.5,2.7-2.2,6.1c0.1,1.7,0.9,3,1.1,3.3
	c2,3.3,36.1,66,83.4,152.9c0.1,0.2,0.3,0.5,0.5,0.9c2.8,4.2,8.3,6.1,12.8,6c3.4,0,5.9-1.1,6.4-1.3c2.6-1.2,4.3-2.9,5.6-4.3
	c1.1-1.1,1.9-2.2,2.5-2.9L223.7,457.2z"/>
<text transform="matrix(1 0 0 1 23.5589 383.7623)" class="st1 st2 st3">oonnect</text>
<circle class="st4" cx="123.9" cy="104.7" r="46.2"/>
<rect x="95.7" y="176.4" class="st1" width="56" height="36.1"/>
</svg>
