<?xml version="1.0" encoding="utf-8"?>
<!-- Generator: Adobe Illustrator 25.0.0, SVG Export Plug-In . SVG Version: 6.00 Build 0)  -->
<svg version="1.1" id="Layer_1" xmlns="http://www.w3.org/2000/svg" xmlns:xlink="http://www.w3.org/1999/xlink" x="0px" y="0px"
	 viewBox="0 0 867 773" style="enable-background:new 0 0 867 773;" xml:space="preserve">
<style type="text/css">
	.st0{fill:#F5E051;stroke:#505050;stroke-width:2;stroke-miterlimit:10;}
</style>
<g>
	<path class="st0" d="M413.1304626,503.5470276L279.7453918,386.4789124
		c-14.7322998-12.9317932-13.6476746-34.8484192,1.0846558-47.7802124l25.59198-22.4596558"/>
	<path class="st0" d="M519.8369751,409.8922119L346.4388733,257.7041321
		c-14.7342224-12.9301147-38.0795593-13.4069214-52.8118896-0.4768066l-0.271637,0.2384033
		c-14.7323303,12.9301453-15.0058289,34.1348877-0.271637,47.0650024l173.3999939,152.1880493"/>
	<path class="st0" d="M586.5304565,702.5617065l-40.0526733-35.1530762
		c-23.4943848-20.6203003-76.5118713-20.3256226-106.7083435-46.8282471L279.7453918,480.1320801
		c-14.7322998-12.9317627-13.6476746-34.8484192,1.0865479-47.7802124l25.5900879-22.4596558"/>
	<path class="st0" d="M586.5304565,374.7722778C578.6096802,367.822113,439.80896,245.9974976,439.80896,245.9974976
		c-14.7341309-12.931778-37.5362854-13.8837433-52.2686157-0.9536133l-27.7631531,24.3669128"/>
	<path class="st0" d="M786.6070557,526.9603271l-40.0526733-35.1530457
		c-22.7285156-19.9481506-29.7985229-42.3018799-35.3707275-68.2349854
		c-7.979248-37.1264954-27.9876709-57.6127014-44.6610107-72.2464294
		c-16.6734009-14.633728-34.420105-30.2094727-66.6538696-58.5018005c-20.0084229-17.5591125-40.0148926-11.7066345-53.3532715,0
		l-26.6785278,23.414978"/>
	<polyline class="st0" points="639.883728,772.8015747 573.1921387,714.2683105 799.9453735,515.2536621 866.6369629,573.7869263 	
		"/>
	<path class="st0" d="M79.6687698,257.7041321l40.0526733,35.1530762
		c23.4943771,20.6203003,23.1586075,67.1521912,53.3551559,93.6548157l53.3155365,46.7934875"/>
	<path class="st0" d="M279.7453918,82.1027832l40.0527649,35.1530533
		c22.7284546,19.9481583,48.1978149,26.1532822,77.7454529,31.0438919
		c42.3012695,7.0031281,65.6427917,24.5639191,82.3161621,39.1976471
		c16.6733398,14.6337128,34.4201355,30.2094727,66.6557312,58.5001221"/>
	<polyline class="st0" points="-0.3611318,210.8775482 66.330513,269.4107971 293.0837097,70.3961411 226.3921356,11.8629065 	"/>
	<path class="st0" d="M279.7453918,690.8550415l40.0150146-35.1199341
		c16.2903748-14.2976685,46.7906189-18.5558472,74.0312805-28.6565552"/>
	<path class="st0" d="M79.6687698,515.2536621l40.014946-35.1199341
		c21.3250885-18.7164001,28.8968506-39.5800781,34.3540344-63.5032959"/>
	<polyline class="st0" points="226.3940277,761.0949097 293.0856018,702.5617065 66.330513,503.5470276 -0.3611318,562.0802612 	"/>
	<path class="st0" d="M786.6070557,245.9974976l-40.0148926,35.1199341
		c-16.2923584,14.2992859-21.144043,41.0767517-32.6563721,64.9883728"/>
	<path class="st0" d="M586.5304565,70.3961411l-40.0149536,35.1199417
		c-21.3533936,18.7412262-45.1589966,25.380127-72.4619141,30.1697388"/>
	<polyline class="st0" points="866.638855,199.1725616 799.9453735,257.7041321 573.1921387,58.6894951 639.883728,0.15626 	"/>
</g>
</svg>
