<?xml version="1.0" encoding="utf-8"?>
<!-- Generator: Adobe Illustrator 25.0.0, SVG Export Plug-In . SVG Version: 6.00 Build 0)  -->
<svg version="1.1" id="Layer_1" xmlns="http://www.w3.org/2000/svg" xmlns:xlink="http://www.w3.org/1999/xlink" x="0px" y="0px"
	 viewBox="0 0 433 535" style="enable-background:new 0 0 433 535;" xml:space="preserve">
<style type="text/css">
	.st0{fill:#FFFF00;}
</style>
<path class="st0" d="M207.92,170.91l98.16,55.78l0.95-1.03l0,0c5.39-5.3,12.87-8.6,21.08-8.6c3.14,0,6.22,0.46,9.09,1.4l45.16-76.95
	l-1.04-0.97c-5.4-5.32-8.74-12.68-8.74-20.76c0-3.15,0.47-6.14,1.41-8.97L275.9,55.08l-0.99,0.98l0,0c-5.41,5.3-12.89,8.6-21.1,8.6
	c-3.14,0-6.22-0.46-9.05-1.39l-45.16,76.99l1,0.98h0.06c5.39,5.31,8.69,12.67,8.69,20.7C209.34,165.1,208.87,168.08,207.92,170.91
	L207.92,170.91z M111.65,259.96c0.88,0.2,1.82,0.41,2.72,0.72l45.15-77l-1.05-0.97l-1-0.98l-45.83,26.05V259.96z M125.31,266.91
	l1,0.93l0.04,0.06c5.4,5.3,8.74,12.61,8.74,20.7c0,3.14-0.53,6.13-1.41,8.96l97.64,55.47c0.94-1.23,1.92-2.38,3.08-3.46v-0.05
	c5.35-5.3,12.83-8.6,21.04-8.6c3.19,0,6.22,0.52,9.1,1.38l43.53-74.21l-1.04-0.98c-5.4-5.25-8.75-12.61-8.75-20.7
	c0-3.14,0.53-6.13,1.42-8.97l-98.11-55.71l-0.94,0.98h-0.06c-5.38,5.3-12.81,8.6-21.03,8.6c-3.19,0-6.23-0.46-9.11-1.39
	L125.31,266.91z M127.34,308.33l-1,1.02h-0.04c-5.4,5.31-12.83,8.61-21.04,8.61c-3.14,0-6.23-0.52-9.11-1.4l-41.81,71.32l0.99,0.98
	h0.06c5.34,5.3,8.68,12.67,8.68,20.76c0,5.41-1.47,10.5-4.13,14.88l97.59,55.41l0.95-0.97l0,0c5.39-5.31,12.86-8.61,21.08-8.61
	c3.14,0,6.22,0.47,9.05,1.41l46.77-79.73l-0.99-0.98c-5.38-5.3-8.73-12.67-8.73-20.75c0-1.96,0.15-3.86,0.57-5.71L127.34,308.33z
	 M85.22,310.33l-1.04-0.98c-5.4-5.3-8.74-12.67-8.74-20.75c0-8.09,3.34-15.4,8.74-20.7v-0.06c3.97-3.86,9.05-6.7,14.74-7.88V215
	l-39.56,22.44c0.94,2.84,1.42,5.82,1.42,8.97c0,8.09-3.36,15.45-8.75,20.7l0,0c-3.98,3.92-9.05,6.75-14.7,7.93v105.37
	c2.08,0.2,4.07,0.62,6.02,1.24l15.91-27.1L85.22,310.33z M275.49,348.54l1.04,0.97v0.05c0.73,0.67,1.41,1.44,2.04,2.22l43.22-24.58
	v-52.17c-0.94-0.2-1.88-0.42-2.78-0.72L275.49,348.54z M284.32,362.92c0.64,2.36,0.95,4.84,0.95,7.35c0,8.09-3.35,15.45-8.74,20.75
	l0,0c-5.38,5.3-12.87,8.6-21.08,8.6c-3.14,0-6.23-0.52-9.06-1.38l-46.78,79.71l1,0.98h0.06l0.94,0.97l98.11-55.73
	c-0.89-2.83-1.42-5.81-1.42-8.96c0-8.09,3.35-15.4,8.75-20.7v-0.05c3.96-3.85,9.05-6.7,14.75-7.94v-44.91L284.32,362.92z
	 M348.16,224.68l0.99,0.98h0.06c5.38,5.3,8.73,12.67,8.73,20.76c0,8.09-3.35,15.45-8.73,20.7h-0.06c-3.92,3.92-8.99,6.75-14.7,7.93
	v44.96l39.56-22.45c-0.94-2.84-1.41-5.83-1.41-8.96c0-8.09,3.35-15.4,8.74-20.7v-0.06c3.92-3.86,9.05-6.7,14.69-7.88V148.41
	c-0.93-0.16-1.82-0.41-2.71-0.72L348.16,224.68z M179.57,132.65c3.14,0,6.22,0.46,9.05,1.39l45.15-76.99l-0.98-0.98l-1-0.98
	l-98.12,55.73c0.89,2.83,1.41,5.82,1.41,8.97c0,8.07-3.34,15.44-8.74,20.76h-0.04c-3.94,3.85-9.01,6.69-14.65,7.87v44.96
	l39.51-22.45c-0.9-2.83-1.43-5.82-1.43-8.96c0-8.04,3.36-15.4,8.75-20.7l0,0C163.87,135.95,171.34,132.65,179.57,132.65
	L179.57,132.65z M408.75,259.96c5.65,1.18,10.73,4.02,14.71,7.88v0.06c5.39,5.3,8.73,12.61,8.73,20.7c0,8.08-3.34,15.46-8.73,20.75
	l0,0c-5.4,5.31-12.88,8.61-21.05,8.61c-3.18,0-6.23-0.47-9.09-1.4l-45.16,76.99l0.99,0.93l0.06,0.05c5.38,5.3,8.73,12.62,8.73,20.7
	s-3.35,15.45-8.73,20.76h-0.06c-5.38,5.3-12.81,8.6-21.03,8.6c-8.21,0-15.7-3.3-21.08-8.6l-0.95-1.04l-98.16,55.77
	c0.94,2.85,1.41,5.82,1.41,8.91c0,8.15-3.3,15.46-8.69,20.75h-0.06c-5.38,5.32-12.81,8.6-21.03,8.6c-8.22,0-15.69-3.28-21.08-8.6
	c-5.39-5.3-8.75-12.6-8.75-20.75c0-3.09,0.48-6.07,1.43-8.91l-100.11-56.9c-4.77,3.24-10.57,5.09-16.75,5.09
	c-8.21,0-15.7-3.28-21.08-8.6c-5.38-5.3-8.73-12.62-8.73-20.7c0-8.09,3.35-15.46,8.73-20.76l0,0c3.18-3.14,7.07-5.55,11.41-6.99
	V275.05c-5.7-1.18-10.78-4.02-14.7-7.93c-5.4-5.25-8.74-12.61-8.74-20.7c0-8.09,3.34-15.45,8.74-20.76l0,0
	c5.38-5.3,12.81-8.6,21.08-8.6c3.14,0,6.18,0.46,9.05,1.4l45.16-77l-1.04-0.92c-5.4-5.32-8.74-12.68-8.74-20.76
	c0-8.09,3.34-15.4,8.74-20.77l0,0c5.39-5.3,12.88-8.6,21.08-8.6c8.21,0,15.64,3.29,21.04,8.6h0.04l0.95,1.04l98.16-55.79
	c-0.94-2.82-1.41-5.81-1.41-8.9c0-8.09,3.35-15.46,8.74-20.76l0,0C238.17,9.3,245.6,6,253.81,6s15.69,3.3,21.1,8.6l0,0
	c5.39,5.3,8.73,12.67,8.73,20.76c0,3.08-0.47,6.07-1.41,8.9l98.11,55.79l1-1.04l0,0c5.39-5.3,12.82-8.6,21.08-8.6
	c8.17,0,15.66,3.29,21.05,8.6l0,0c5.39,5.36,8.73,12.68,8.73,20.77c0,8.07-3.34,15.44-8.73,20.76l0,0
	c-3.98,3.85-9.06,6.69-14.71,7.87V259.96z M382.37,310.33l-1.04-0.98l-1-1.02l-45.89,26.1v52.17c0.94,0.2,1.88,0.41,2.76,0.72
	L382.37,310.33z M51,224.68l1.05,0.98l0,0l1,1.03l45.89-26.11v-52.17c-0.94-0.16-1.84-0.41-2.77-0.72L51,224.68z"/>
</svg>
