<?xml version="1.0" ?><svg id="Icons" style="enable-background:new 0 0 32 32;" version="1.1" viewBox="0 0 32 32" xml:space="preserve" xmlns="http://www.w3.org/2000/svg" xmlns:xlink="http://www.w3.org/1999/xlink"><style type="text/css">
	.st0{fill:none;stroke:#000000;stroke-width:2;stroke-linejoin:round;stroke-miterlimit:10;}
	.st1{fill:none;stroke:#000000;stroke-width:2;stroke-linecap:round;stroke-linejoin:round;stroke-miterlimit:10;}
	.st2{fill:none;stroke:#000000;stroke-width:2;stroke-miterlimit:10;}
</style><path class="st0" d="M5,17v-3C5,7.9,9.9,3,16,3s11,4.9,11,11v3"/><path class="st0" d="M27,17c0,5.5-4,10.1-9.3,10.9C16.8,28,16,27.3,16,26.4v0c0-0.8,0.6-1.4,1.4-1.4h0c0.9,0,1.6,0.7,1.6,1.6V27"/><path class="st0" d="M9,13c-2.2,0-4,1.8-4,4c0,2.2,1.8,4,4,4V13z"/><path class="st0" d="M23,21c2.2,0,4-1.8,4-4c0-2.2-1.8-4-4-4V21z"/></svg>