<?xml version="1.0" encoding="utf-8"?>
<!-- Generator: Adobe Illustrator 25.0.0, SVG Export Plug-In . SVG Version: 6.00 Build 0)  -->
<svg version="1.1" id="Layer_1" xmlns="http://www.w3.org/2000/svg" xmlns:xlink="http://www.w3.org/1999/xlink" x="0px" y="0px"
	 viewBox="0 0 1413 1172" style="enable-background:new 0 0 1413 1172;" xml:space="preserve">
<style type="text/css">
	.st0{clip-path:url(#SVGID_2_);}
	.st1{clip-path:url(#SVGID_4_);}
</style>
<image style="overflow:visible;enable-background:new    ;" width="169" height="42" xlink:href="604EBDCA.png"  transform="matrix(1.4023 0 0 1.4017 1025.8643 1033.6915)">
</image>
<image style="overflow:visible;enable-background:new    ;" width="243" height="46" xlink:href="604EBDC8.png"  transform="matrix(1.3333 0 0 1.3327 1061.3633 300.5103)">
</image>
<image style="overflow:visible;enable-background:new    ;" width="398" height="50" xlink:href="604EBDC9.png"  transform="matrix(1.4415 0 0 1.4408 112.3889 950.8776)">
</image>
<image style="overflow:visible;enable-background:new    ;" width="246" height="47" xlink:href="604EBDD6.png"  transform="matrix(1.317 0 0 1.3044 1046.8636 712.4507)">
</image>
<g>
	<g>
		<defs>
			<path id="SVGID_1_" d="M772.1,216.8c-4.2,6.2-6.7,9.8-7.7,15.3c-0.8,4.7-0.3,9.1,0,11.5c0.8,6.4,2.3,7.6,1.5,11.6
				c-0.4,2-1.3,3.9-1.5,7.5c0,0.8,0,0.7,0,3.8c0,5.9-0.1,5.8,0,7.6c0.2,3.9,0.3,5.8,1.5,7.8c1,1.7,2.3,2.8,3.8,3.8
				c3.6,2.5,6.9,3.6,7.7,3.8c7.2,2.4,9.2,1.7,15.3,3.8c2.2,0.8,7.8,2.7,7.7,3.8c-0.4,2.3-24.9-4.7-55-0.1c-14.9,2.3-13.6,4.7-33,7.8
				c-15.7,2.5-25.1,4-38.3,3.8c-12.3-0.2-18.4,1.2-30.6,3.8c-3.8,0.8-6.9,1.7-7.7,3.8c-2,5.8,14.3,16,19.1,19.1
				c47.7,30.2,179.8,8,218.1,57.4c13.2,17.1,11.5,44.2,11.5,45.9c-0.8,20.8-9.4,29.7-15.3,57.4c-4,19.1-3.9,33.9-3.8,45.9
				c0.5,65.1,33.8,85.4,26.8,126.2c-3.9,22.8-20.9,39-38.3,57.4c-4.7,5-9.3,9.3-13.5,13c-13.7,11.9-24.7,18.8-28.6,21.4
				c-28.8,19.1-43.1,60.3-47.4,72.5c-9.8,28.3-9,49.2-10,57.5c-9,71.9-290.9,190.1-489.7,103.3C8.9,881.5-129.9,448.2,62,178.7
				c240-337.2,877.8-101.7,880-61.2c0.5,9-29.4,29.2-45.9,38.2c-15.5,8.5-33.7,14.8-45.9,19.1c-20.5,7.2-30.7,10.8-34.4,11.5
				c-6.4,1.2-14.4,2.2-23,7.6c-3.8,2.4-6.8,6.3-11.5,11.5C778.2,208.8,775.3,212,772.1,216.8z"/>
		</defs>
		<clipPath id="SVGID_2_">
			<use xlink:href="#SVGID_1_"  style="overflow:visible;"/>
		</clipPath>
		<g transform="matrix(1 0 0 1 0 0)" class="st0">
			
				<image style="overflow:visible;enable-background:new    ;" width="566" height="441" xlink:href="604EBDD7.png"  transform="matrix(2.2956 0 0 2.2946 87.2786 75.2897)">
			</image>
		</g>
	</g>
</g>
<image style="overflow:visible;enable-background:new    ;" width="275" height="262" xlink:href="604EBDDB.png"  transform="matrix(1.3664 0 0 1.3658 867.7159 361.1491)">
</image>
<image style="overflow:visible;enable-background:new    ;" width="663" height="243" xlink:href="604EBDDD.png"  transform="matrix(1.0081 0 0 1.0077 625.3751 102.2683)">
</image>
<g>
	<g>
		<defs>
			<ellipse id="SVGID_3_" cx="923.9" cy="896.9" rx="182.5" ry="182.4"/>
		</defs>
		<clipPath id="SVGID_4_">
			<use xlink:href="#SVGID_3_"  style="overflow:visible;"/>
		</clipPath>
		<g transform="matrix(1 0 0 1 0 -6.103516e-05)" class="st1">
			
				<image style="overflow:visible;enable-background:new    ;" width="272" height="258" xlink:href="604EBDDE.png"  transform="matrix(1.3709 0 0 1.3764 751.105 719.8373)">
			</image>
		</g>
	</g>
</g>
</svg>
